<svg version="1.1" id="Layer_1" xmlns="http://www.w3.org/2000/svg" xmlns:xlink="http://www.w3.org/1999/xlink" x="0px" y="0px" width="100%" viewBox="0 0 498 501" enable-background="new 0 0 498 501" xml:space="preserve">

<path fill="#F8F7F7" opacity="1.000000" stroke="none" d="
M75.082565,270.999939 
	C75.073387,212.003159 75.047363,153.506363 75.085434,95.009621 
	C75.088646,90.067535 75.741768,85.122902 75.678299,80.184776 
	C75.634079,76.744087 77.906609,76.009575 80.275520,75.659622 
	C83.550407,75.175842 86.904015,75.068146 90.223892,75.068321 
	C201.883286,75.074265 313.542694,75.112198 425.202087,75.145447 
	C426.178253,75.145737 427.154419,75.145485 428.832336,75.145485 
	C428.832336,193.193878 428.832336,310.953949 428.832336,429.001556 
	C311.173279,429.001556 193.746140,429.001556 75.082565,429.001556 
	C75.082565,376.519562 75.082565,324.009766 75.082565,270.999939 
M411.372345,350.500244 
	C411.372345,264.759186 411.372345,179.018097 411.372345,93.052155 
	C305.110962,93.052155 199.573975,93.052155 93.726616,93.052155 
	C93.477287,96.087280 93.073906,98.709595 93.073555,101.331955 
	C93.059937,202.647354 93.107780,303.962799 93.019035,405.278107 
	C93.015152,409.715546 93.984200,411.268982 98.809181,411.261719 
	C198.124924,411.112122 297.440948,411.149170 396.756927,411.149139 
	C401.385468,411.149139 406.013977,411.149139 411.372345,411.149139 
	C411.372345,391.037964 411.372345,371.269135 411.372345,350.500244 
z" data-index="1" style="opacity: 1;"></path>

<path fill="#FBFAFA" opacity="1.000000" stroke="none" d="
M167.936401,313.922241 
	C167.929626,316.702728 167.929626,318.999237 167.929626,321.714844 
	C157.053253,321.714844 146.606628,321.823212 136.171036,321.533905 
	C135.211151,321.507324 133.541885,318.955750 133.519897,317.555939 
	C133.297668,303.399139 133.334229,289.238007 133.329193,275.078094 
	C133.321442,253.254730 133.338043,231.431351 133.344238,209.607986 
	C133.344666,208.129562 133.344315,206.651123 133.344315,204.289795 
	C123.690712,208.290375 114.651367,212.036392 105.067482,216.008072 
	C105.067482,205.253967 105.067482,195.000244 105.067482,184.399231 
	C118.521744,178.954910 132.216583,172.576447 146.492935,168.019943 
	C152.807327,166.004623 160.299683,167.680130 167.943176,167.680130 
	C167.943176,216.608612 167.943176,265.023438 167.936401,313.922241 
z" data-index="3" style="opacity: 1;"></path>
<path fill="#F6F4F4" opacity="1.000000" stroke="none" d="
M346.153748,267.009094 
	C346.156067,269.833466 346.400970,272.198608 346.084930,274.486267 
	C345.802612,276.529755 344.825256,280.221680 344.285217,280.198090 
	C341.111450,280.059296 336.557526,280.112976 335.073181,278.141174 
	C328.642273,269.598511 323.111633,260.378113 317.253754,251.404099 
	C315.396576,248.558990 313.539825,245.713608 310.676575,243.089783 
	C310.676575,255.201675 310.676575,267.313568 310.676575,280.160522 
	C306.563721,280.160522 302.589417,280.160522 298.370361,280.160522 
	C298.370361,259.842285 298.370361,239.774918 298.370361,219.466293 
	C303.797668,218.762390 308.075989,218.365097 311.552521,224.192474 
	C318.156464,235.262115 325.816437,245.701767 333.922729,257.714417 
	C334.103088,254.900696 334.269073,253.556717 334.262482,252.213593 
	C334.217499,243.056107 334.395142,233.886475 333.960205,224.746506 
	C333.734100,219.995636 335.323059,218.382233 339.877472,219.033432 
	C341.660706,219.288391 343.510925,219.075165 346.152252,219.075165 
	C346.152252,235.068207 346.152252,250.792191 346.153748,267.009094 
z" data-index="4" style="opacity: 1;"></path>
<path fill="#F5F5F5" opacity="1.000000" stroke="none" d="
M193.066330,260.812012 
	C193.311172,251.057785 193.647324,241.781082 193.772415,232.501541 
	C193.816635,229.219604 193.086166,225.918121 193.244476,222.651489 
	C193.303619,221.431000 194.887360,219.263046 195.775665,219.263199 
	C204.036606,219.264542 212.338089,219.232407 220.546005,220.040604 
	C227.561783,220.731415 232.252304,224.938950 233.786209,232.102539 
	C235.082443,238.156113 232.933273,243.229935 226.885071,248.503403 
	C228.911606,250.345184 231.367554,251.882492 232.880936,254.071472 
	C239.871933,264.183411 234.617584,276.673706 222.179504,279.573395 
	C219.395462,280.222412 216.413788,280.100983 213.518906,280.179016 
	C209.200897,280.295502 204.839752,279.918854 200.568069,280.392883 
	C193.797043,281.144226 192.619568,280.155731 193.059174,273.533325 
	C193.328964,269.469238 193.086761,265.371185 193.066330,260.812012 
M220.209686,256.337463 
	C215.992081,252.098648 210.929138,253.601578 206.103882,253.808945 
	C206.103882,260.145630 206.103882,266.040497 206.103882,272.047028 
	C212.304718,271.981323 218.761536,273.604767 222.308456,266.921387 
	C224.155304,263.441406 223.704193,259.861877 220.209686,256.337463 
M212.959885,227.948868 
	C210.688904,227.948868 208.417938,227.948868 206.052856,227.948868 
	C206.052856,233.671814 206.052856,239.215210 206.052856,244.732910 
	C215.122787,245.453613 219.932785,243.663177 221.086151,239.263931 
	C222.566711,233.616669 220.633041,230.602051 212.959885,227.948868 
z" data-index="5" style="opacity: 1;"></path>
<path fill="#F5F4F3" opacity="1.000000" stroke="none" d="
M275.936157,233.016907 
	C281.871155,248.737900 287.763794,264.069153 293.765411,279.683929 
	C292.122986,280.066132 290.439178,280.616913 288.713623,280.830078 
	C283.256744,281.504303 280.811737,279.754608 278.885956,274.139282 
	C277.872314,271.183533 276.732666,268.270935 275.456879,264.816040 
	C268.925049,264.816040 262.038696,264.816040 255.100204,264.816040 
	C253.778229,268.662262 252.428406,272.049622 251.459991,275.542755 
	C250.231567,279.973785 247.789886,281.696442 243.210510,280.323669 
	C241.694199,279.869110 239.970108,280.107666 237.593781,279.993378 
	C240.175079,273.294006 242.601944,267.059174 244.981461,260.806274 
	C249.730148,248.327774 254.548065,235.874115 259.122803,223.331940 
	C260.345642,219.979431 262.183136,219.056900 265.684875,218.936295 
	C269.411499,218.807922 271.205078,220.281937 272.369934,223.380844 
	C273.530426,226.468262 274.718048,229.545486 275.936157,233.016907 
M268.964203,256.861145 
	C270.004578,256.464447 271.044952,256.067719 272.237671,255.612930 
	C270.110657,249.254303 268.038757,243.060455 265.966858,236.866592 
	C265.555298,236.903275 265.143738,236.939957 264.732178,236.976639 
	C262.671417,243.124985 260.610626,249.273346 258.273529,256.246063 
	C262.000793,256.487122 265.049469,256.684296 268.964203,256.861145 
z" data-index="6" style="opacity: 1;"></path>
<path fill="#F3F2F2" opacity="1.000000" stroke="none" d="
M369.105377,244.758545 
	C370.323608,244.775574 371.754517,245.222534 372.726410,244.741699 
	C380.556366,240.867859 384.412598,233.881454 386.932465,225.953461 
	C387.582123,223.909485 388.008118,221.794449 388.617950,219.392761 
	C392.138275,219.392761 395.704834,219.392761 400.207672,219.392761 
	C398.893951,231.530243 394.388947,241.466873 384.386780,248.922501 
	C391.366302,258.973206 398.374084,269.064545 405.690338,279.600159 
	C402.948822,280.125977 400.931427,280.769196 398.892303,280.847748 
	C395.251831,280.988007 391.979309,280.495361 389.585205,276.892548 
	C383.937042,268.392731 377.930878,260.130066 372.013702,251.811203 
	C371.535553,251.139023 370.629486,250.771240 369.505493,250.185852 
	C369.094299,248.325958 369.099854,246.542252 369.105377,244.758545 
z" data-index="7" style="opacity: 1;"></path>
<path fill="#F9F8F8" opacity="1.000000" stroke="none" d="
M369.088745,244.305618 
	C369.099854,246.542252 369.094299,248.325958 369.251831,250.435822 
	C369.276825,257.514557 369.121094,264.266846 369.008881,271.019867 
	C368.960083,273.958344 369.000702,276.898285 369.000702,280.266815 
	C365.285309,280.266815 361.496155,280.266815 357.099731,280.266815 
	C357.099731,275.345947 357.099365,271.059814 357.099792,266.773651 
	C357.101166,252.955002 357.321472,239.131104 356.989655,225.320465 
	C356.868134,220.262131 358.272827,218.195129 363.410004,219.041641 
	C365.141693,219.326981 366.959991,219.086792 369.072144,219.086792 
	C369.072144,227.654846 369.072144,235.753769 369.088745,244.305618 
z" data-index="8" style="opacity: 1;"></path>

<path fill="#010101" opacity="1.000000" stroke="none" d="
M213.399429,227.957169 
	C220.633041,230.602051 222.566711,233.616669 221.086151,239.263931 
	C219.932785,243.663177 215.122787,245.453613 206.052856,244.732910 
	C206.052856,239.215210 206.052856,233.671814 206.052856,227.948868 
	C208.417938,227.948868 210.688904,227.948868 213.399429,227.957169 
z" data-index="10" style="opacity: 1; visibility: hidden;"></path>

</svg>